<mxfile host="65bd71144e" pages="2">
    <diagram id="S42dfGRdDXIU9umXsa9I" name="PÃ¡gina-2">
        <mxGraphModel dx="1070" dy="782" grid="1" gridSize="10" guides="1" tooltips="1" connect="1" arrows="1" fold="1" page="1" pageScale="1" pageWidth="827" pageHeight="1169" math="0" shadow="0">
            <root>
                <mxCell id="0"/>
                <mxCell id="1" parent="0"/>
                <mxCell id="r16i44C-CkAp_Z2w0IjG-41" value="App" style="rounded=0;whiteSpace=wrap;html=1;labelBackgroundColor=none;align=left;verticalAlign=top;" parent="1" vertex="1">
                    <mxGeometry x="100" y="130" width="900" height="240" as="geometry"/>
                </mxCell>
                <mxCell id="r16i44C-CkAp_Z2w0IjG-36" value="" style="group" parent="1" vertex="1" connectable="0">
                    <mxGeometry x="380" y="160" width="580" height="170" as="geometry"/>
                </mxCell>
                <mxCell id="r16i44C-CkAp_Z2w0IjG-33" value="Backend" style="rounded=0;whiteSpace=wrap;html=1;fillColor=#f5f5f5;fontColor=#333333;strokeColor=none;align=left;verticalAlign=top;" parent="r16i44C-CkAp_Z2w0IjG-36" vertex="1">
                    <mxGeometry width="580" height="170" as="geometry"/>
                </mxCell>
                <mxCell id="r16i44C-CkAp_Z2w0IjG-35" value="Controladoras&amp;nbsp;" style="rounded=1;whiteSpace=wrap;html=1;fillColor=#fff2cc;strokeColor=#d6b656;" parent="r16i44C-CkAp_Z2w0IjG-36" vertex="1">
                    <mxGeometry x="469" y="34" width="90" height="80" as="geometry"/>
                </mxCell>
                <mxCell id="r16i44C-CkAp_Z2w0IjG-34" value="Controladoras&amp;nbsp;" style="rounded=1;whiteSpace=wrap;html=1;fillColor=#fff2cc;strokeColor=#d6b656;" parent="r16i44C-CkAp_Z2w0IjG-36" vertex="1">
                    <mxGeometry x="467" y="32" width="90" height="80" as="geometry"/>
                </mxCell>
                <mxCell id="r16i44C-CkAp_Z2w0IjG-31" value="Helpers" style="rounded=1;whiteSpace=wrap;html=1;" parent="r16i44C-CkAp_Z2w0IjG-36" vertex="1">
                    <mxGeometry x="19" y="144" width="550" height="20" as="geometry"/>
                </mxCell>
                <mxCell id="r16i44C-CkAp_Z2w0IjG-30" value="Helpers" style="rounded=1;whiteSpace=wrap;html=1;" parent="r16i44C-CkAp_Z2w0IjG-36" vertex="1">
                    <mxGeometry x="17" y="142" width="550" height="20" as="geometry"/>
                </mxCell>
                <mxCell id="r16i44C-CkAp_Z2w0IjG-12" value="Server" style="rounded=1;whiteSpace=wrap;html=1;fillColor=#ffe6cc;strokeColor=#d79b00;" parent="r16i44C-CkAp_Z2w0IjG-36" vertex="1">
                    <mxGeometry x="15" y="30" width="90" height="80" as="geometry"/>
                </mxCell>
                <mxCell id="r16i44C-CkAp_Z2w0IjG-13" value="" style="endArrow=classic;html=1;rounded=0;exitX=1;exitY=0.5;exitDx=0;exitDy=0;entryX=0;entryY=0.5;entryDx=0;entryDy=0;" parent="r16i44C-CkAp_Z2w0IjG-36" source="r16i44C-CkAp_Z2w0IjG-12" target="r16i44C-CkAp_Z2w0IjG-14" edge="1">
                    <mxGeometry width="50" height="50" relative="1" as="geometry">
                        <mxPoint x="245" y="120" as="sourcePoint"/>
                        <mxPoint x="155" y="60" as="targetPoint"/>
                    </mxGeometry>
                </mxCell>
                <mxCell id="r16i44C-CkAp_Z2w0IjG-14" value="Controladora Mensajes" style="rounded=1;whiteSpace=wrap;html=1;fillColor=#dae8fc;strokeColor=#6c8ebf;" parent="r16i44C-CkAp_Z2w0IjG-36" vertex="1">
                    <mxGeometry x="155" y="30" width="90" height="80" as="geometry"/>
                </mxCell>
                <mxCell id="r16i44C-CkAp_Z2w0IjG-18" style="edgeStyle=orthogonalEdgeStyle;rounded=0;orthogonalLoop=1;jettySize=auto;html=1;exitX=0;exitY=0.25;exitDx=0;exitDy=0;entryX=1;entryY=0.25;entryDx=0;entryDy=0;" parent="r16i44C-CkAp_Z2w0IjG-36" source="r16i44C-CkAp_Z2w0IjG-15" target="r16i44C-CkAp_Z2w0IjG-14" edge="1">
                    <mxGeometry relative="1" as="geometry"/>
                </mxCell>
                <mxCell id="r16i44C-CkAp_Z2w0IjG-20" value="Suscripcion" style="edgeLabel;html=1;align=center;verticalAlign=middle;resizable=0;points=[];labelBackgroundColor=none;" parent="r16i44C-CkAp_Z2w0IjG-18" vertex="1" connectable="0">
                    <mxGeometry x="-0.2041" relative="1" as="geometry">
                        <mxPoint x="-7" y="-13" as="offset"/>
                    </mxGeometry>
                </mxCell>
                <mxCell id="r16i44C-CkAp_Z2w0IjG-15" value="Manejador de eventos" style="rounded=1;whiteSpace=wrap;html=1;fillColor=#d5e8d4;strokeColor=#82b366;" parent="r16i44C-CkAp_Z2w0IjG-36" vertex="1">
                    <mxGeometry x="315" y="30" width="90" height="80" as="geometry"/>
                </mxCell>
                <mxCell id="r16i44C-CkAp_Z2w0IjG-17" style="edgeStyle=orthogonalEdgeStyle;rounded=0;orthogonalLoop=1;jettySize=auto;html=1;exitX=1;exitY=0.5;exitDx=0;exitDy=0;entryX=0;entryY=0.5;entryDx=0;entryDy=0;dashed=1;" parent="r16i44C-CkAp_Z2w0IjG-36" source="r16i44C-CkAp_Z2w0IjG-14" target="r16i44C-CkAp_Z2w0IjG-15" edge="1">
                    <mxGeometry relative="1" as="geometry"/>
                </mxCell>
                <mxCell id="r16i44C-CkAp_Z2w0IjG-19" value="Evento" style="edgeLabel;html=1;align=center;verticalAlign=middle;resizable=0;points=[];labelBackgroundColor=none;" parent="r16i44C-CkAp_Z2w0IjG-17" vertex="1" connectable="0">
                    <mxGeometry x="-0.3184" y="-1" relative="1" as="geometry">
                        <mxPoint x="6" y="9" as="offset"/>
                    </mxGeometry>
                </mxCell>
                <mxCell id="r16i44C-CkAp_Z2w0IjG-21" value="Controladoras&amp;nbsp;" style="rounded=1;whiteSpace=wrap;html=1;fillColor=#fff2cc;strokeColor=#d6b656;" parent="r16i44C-CkAp_Z2w0IjG-36" vertex="1">
                    <mxGeometry x="465" y="30" width="90" height="80" as="geometry"/>
                </mxCell>
                <mxCell id="r16i44C-CkAp_Z2w0IjG-22" style="edgeStyle=orthogonalEdgeStyle;rounded=0;orthogonalLoop=1;jettySize=auto;html=1;" parent="r16i44C-CkAp_Z2w0IjG-36" source="r16i44C-CkAp_Z2w0IjG-15" target="r16i44C-CkAp_Z2w0IjG-21" edge="1">
                    <mxGeometry relative="1" as="geometry"/>
                </mxCell>
                <mxCell id="r16i44C-CkAp_Z2w0IjG-23" value="Helpers" style="rounded=1;whiteSpace=wrap;html=1;" parent="r16i44C-CkAp_Z2w0IjG-36" vertex="1">
                    <mxGeometry x="15" y="140" width="550" height="20" as="geometry"/>
                </mxCell>
                <mxCell id="r16i44C-CkAp_Z2w0IjG-25" style="edgeStyle=orthogonalEdgeStyle;rounded=0;orthogonalLoop=1;jettySize=auto;html=1;entryX=0.082;entryY=0.036;entryDx=0;entryDy=0;entryPerimeter=0;" parent="r16i44C-CkAp_Z2w0IjG-36" source="r16i44C-CkAp_Z2w0IjG-12" target="r16i44C-CkAp_Z2w0IjG-23" edge="1">
                    <mxGeometry relative="1" as="geometry"/>
                </mxCell>
                <mxCell id="r16i44C-CkAp_Z2w0IjG-26" style="edgeStyle=orthogonalEdgeStyle;rounded=0;orthogonalLoop=1;jettySize=auto;html=1;entryX=0.337;entryY=-0.079;entryDx=0;entryDy=0;entryPerimeter=0;" parent="r16i44C-CkAp_Z2w0IjG-36" source="r16i44C-CkAp_Z2w0IjG-14" target="r16i44C-CkAp_Z2w0IjG-23" edge="1">
                    <mxGeometry relative="1" as="geometry"/>
                </mxCell>
                <mxCell id="r16i44C-CkAp_Z2w0IjG-28" style="edgeStyle=orthogonalEdgeStyle;rounded=0;orthogonalLoop=1;jettySize=auto;html=1;entryX=0.9;entryY=0;entryDx=0;entryDy=0;entryPerimeter=0;" parent="r16i44C-CkAp_Z2w0IjG-36" source="r16i44C-CkAp_Z2w0IjG-21" target="r16i44C-CkAp_Z2w0IjG-23" edge="1">
                    <mxGeometry relative="1" as="geometry"/>
                </mxCell>
                <mxCell id="r16i44C-CkAp_Z2w0IjG-38" value="App Angular" style="rounded=1;whiteSpace=wrap;html=1;labelBackgroundColor=none;fillColor=#f8cecc;strokeColor=#b85450;" parent="1" vertex="1">
                    <mxGeometry x="140" y="190" width="120" height="110" as="geometry"/>
                </mxCell>
                <mxCell id="r16i44C-CkAp_Z2w0IjG-43" value="" style="endArrow=classic;startArrow=classic;html=1;rounded=0;exitX=1;exitY=0.5;exitDx=0;exitDy=0;entryX=0;entryY=0.5;entryDx=0;entryDy=0;" parent="1" source="r16i44C-CkAp_Z2w0IjG-38" target="r16i44C-CkAp_Z2w0IjG-33" edge="1">
                    <mxGeometry width="50" height="50" relative="1" as="geometry">
                        <mxPoint x="470" y="320" as="sourcePoint"/>
                        <mxPoint x="520" y="270" as="targetPoint"/>
                    </mxGeometry>
                </mxCell>
                <mxCell id="r16i44C-CkAp_Z2w0IjG-44" value="WebSocket" style="edgeLabel;html=1;align=center;verticalAlign=middle;resizable=0;points=[];" parent="r16i44C-CkAp_Z2w0IjG-43" vertex="1" connectable="0">
                    <mxGeometry x="-0.1857" y="-2" relative="1" as="geometry">
                        <mxPoint y="13" as="offset"/>
                    </mxGeometry>
                </mxCell>
                <mxCell id="r16i44C-CkAp_Z2w0IjG-46" value="MongoDB Atlas" style="rounded=1;whiteSpace=wrap;html=1;labelBackgroundColor=none;fillColor=#6d8764;strokeColor=#3A5431;fontColor=#ffffff;" parent="1" vertex="1">
                    <mxGeometry x="749" y="400" width="120" height="60" as="geometry"/>
                </mxCell>
                <mxCell id="r16i44C-CkAp_Z2w0IjG-48" value="AccuWeather API" style="rounded=1;whiteSpace=wrap;html=1;labelBackgroundColor=none;fillColor=#e1d5e7;strokeColor=#9673a6;" parent="1" vertex="1">
                    <mxGeometry x="472" y="400" width="120" height="60" as="geometry"/>
                </mxCell>
                <mxCell id="r16i44C-CkAp_Z2w0IjG-49" value="m3o API" style="rounded=1;whiteSpace=wrap;html=1;labelBackgroundColor=none;fillColor=#e1d5e7;strokeColor=#9673a6;" parent="1" vertex="1">
                    <mxGeometry x="610" y="400" width="120" height="60" as="geometry"/>
                </mxCell>
                <mxCell id="r16i44C-CkAp_Z2w0IjG-53" style="edgeStyle=none;rounded=0;orthogonalLoop=1;jettySize=auto;html=1;exitX=0.25;exitY=1;exitDx=0;exitDy=0;entryX=0.5;entryY=0;entryDx=0;entryDy=0;" parent="1" source="r16i44C-CkAp_Z2w0IjG-23" target="r16i44C-CkAp_Z2w0IjG-48" edge="1">
                    <mxGeometry relative="1" as="geometry"/>
                </mxCell>
                <mxCell id="r16i44C-CkAp_Z2w0IjG-54" style="edgeStyle=none;rounded=0;orthogonalLoop=1;jettySize=auto;html=1;exitX=0.5;exitY=1;exitDx=0;exitDy=0;entryX=0.5;entryY=0;entryDx=0;entryDy=0;" parent="1" source="r16i44C-CkAp_Z2w0IjG-23" target="r16i44C-CkAp_Z2w0IjG-49" edge="1">
                    <mxGeometry relative="1" as="geometry"/>
                </mxCell>
                <mxCell id="r16i44C-CkAp_Z2w0IjG-55" style="edgeStyle=none;rounded=0;orthogonalLoop=1;jettySize=auto;html=1;exitX=0.75;exitY=1;exitDx=0;exitDy=0;entryX=0.5;entryY=0;entryDx=0;entryDy=0;" parent="1" source="r16i44C-CkAp_Z2w0IjG-23" target="r16i44C-CkAp_Z2w0IjG-46" edge="1">
                    <mxGeometry relative="1" as="geometry"/>
                </mxCell>
            </root>
        </mxGraphModel>
    </diagram>
</mxfile>